<svg xmlns="http://www.w3.org/2000/svg" xmlns:xlink="http://www.w3.org/1999/xlink" width="44" height="42" viewBox="0 0 44 42"><defs><path id="kelva" d="M886.23 3982.7c0 .5-.18.96-.49 1.3a1.92 1.92 0 0 1-.8 3.1v1.41h-1.29v-1.29h-1.29v1.3h-1.29v-1.3h-1.29v-6.45h1.3v-1.29h1.28v1.3h1.3v-1.3h1.28v1.41c.75.27 1.3.98 1.3 1.82zm-1.29 2.59a.65.65 0 0 0-.64-.65h-3.23v1.3h3.23c.35 0 .64-.3.64-.65zm0-2.58a.65.65 0 0 0-.64-.65h-3.23v1.3h3.23c.35 0 .64-.3.64-.65zm-7.74 1.29a5.8 5.8 0 0 0 1.3 3.67l-.99.82a7.1 7.1 0 0 1 9.99-9.98l-.82 1a5.82 5.82 0 0 0-9.48 4.49zm11.3-4.49a7.1 7.1 0 0 1-9.99 9.98l.82-1a5.82 5.82 0 0 0 9.49-4.5 5.8 5.8 0 0 0-1.32-3.66zm14.52 3.84a2.58 2.58 0 0 1-2.59 2.58l-.21-.02-2.45 6.91a1.92 1.92 0 0 1-1.2 3.43c-.28 0-.53-.06-.77-.16l-4.64 5.06c.15.27.24.58.24.9a1.94 1.94 0 0 1-3.76.65h-5.4a1.93 1.93 0 1 1-3.52-1.55l-4.19-4.57c-.36.2-.77.32-1.2.32a2.58 2.58 0 0 1-2.59-2.58l.03-.3-4.37-1.68a1.93 1.93 0 1 1-2.11-3.06v-13.78a1.93 1.93 0 1 1 1.72-3.43l4.28-3.21a2.57 2.57 0 0 1 2.39-3.56c1.08 0 2 .67 2.4 1.62l10.55-1.38a1.94 1.94 0 0 1 3.83.4c0 .58-.26 1.1-.66 1.45l1.23 3.07h.08c.71 0 1.33.4 1.67.97l3.52-.64a1.93 1.93 0 1 1 3.02 1.9l2.25 8.1a2.58 2.58 0 0 1 2.45 2.56zm-6.46-12.25a.65.65 0 1 0 1.3 0 .65.65 0 0 0-1.3 0zm-4.74 2.17l7.38 7.83.1-.05-2.23-8.03a1.93 1.93 0 0 1-1.53-.96l-3.53.64c-.03.2-.1.4-.19.57zm-.93.89a1.91 1.91 0 0 1-1.2.12l-1.13 1.8a9.67 9.67 0 0 1 4.08 6.94l5.27-.21c.07-.3.19-.58.35-.83zm-7.88 1.45a8.4 8.4 0 0 0-8.4 8.39 8.4 8.4 0 0 0 16.79 0 8.4 8.4 0 0 0-8.4-8.39zm6.45-3.22a.65.65 0 1 0 1.3 0 .65.65 0 0 0-1.3 0zm-2.58-6.45a.65.65 0 1 0 1.3 0 .65.65 0 0 0-1.3 0zm-12.31 3.69l3.78 5.9a9.63 9.63 0 0 1 9.1-.11l1.15-1.83a1.92 1.92 0 0 1 .23-2.64l-1.23-3.08h-.08c-.75 0-1.4-.43-1.71-1.05l-10.58 1.38c-.07.54-.3 1.04-.66 1.43zm-1.1.69c-.15.05-.31.08-.48.1l-.72 5.42a1.93 1.93 0 0 1 1.02 2.03l1.6.88a9.73 9.73 0 0 1 2.37-2.52zm-2.08-2.44a1.3 1.3 0 1 0 2.58 0 1.3 1.3 0 0 0-2.58 0zm0 9.02a.65.65 0 1 0 0 1.3.65.65 0 0 0 0-1.3zm-4.62-3.8a1.9 1.9 0 0 1 .06.97l3.33 2c.24-.2.52-.35.83-.41l.72-5.4a2.6 2.6 0 0 1-.63-.38zm-2.48.58a.65.65 0 1 0 1.3 0 .65.65 0 0 0-1.3 0zm1.29 17.41a.65.65 0 1 0-1.29 0 .65.65 0 0 0 1.29 0zm0-2.85l4.44-9.32a1.93 1.93 0 0 1-.53-1.76l-3.33-2c-.17.15-.37.26-.58.34zm7.75 3.5c.44 0 .86.12 1.23.32l1.38-1.47a9.62 9.62 0 0 1-1.68-10.7l-1.6-.9c-.34.3-.78.5-1.27.5-.07 0-.13-.02-.2-.03l-4.89 10.26c.35.35.57.84.57 1.37v.05l4.36 1.68a2.58 2.58 0 0 1 2.1-1.08zm1.29 2.58a1.3 1.3 0 1 0-2.59 0 1.3 1.3 0 0 0 2.59 0zm6.45 7.73a.65.65 0 1 0-1.29 0 .65.65 0 0 0 1.3 0zm7.03-1.37l-2.55-7.36a9.61 9.61 0 0 1-8.68-1.84l-1.37 1.46a2.56 2.56 0 0 1-.01 2.78l4.18 4.55a1.93 1.93 0 0 1 2.57 1.14h5.4c.1-.28.26-.53.46-.73zm2 1.37a.65.65 0 1 0-1.28 0 .65.65 0 0 0 1.29 0zm4.76-6.83a1.9 1.9 0 0 1-.24-.9c0-.23.05-.44.12-.65l-4.3-3.48a9.72 9.72 0 0 1-3.66 2.72l2.5 7.23.18-.02c.27 0 .53.05.76.15zm2.35-.9a.65.65 0 1 0-1.3 0 .65.65 0 0 0 1.3 0zm1.78-8.83a2.58 2.58 0 0 1-1.02-1.4l-5.3.22a9.6 9.6 0 0 1-1.48 4.83l4.36 3.53c.3-.18.64-.29 1-.29zm2.73-2.14a1.3 1.3 0 1 0-2.58 0 1.3 1.3 0 0 0 2.58 0z"/><linearGradient id="kelvb" x1="863" x2="903" y1="3983.99" y2="3984.01" gradientUnits="userSpaceOnUse"><stop offset="0" stop-color="#212bf0"/><stop offset="1" stop-color="#00c3e2"/></linearGradient></defs><g><g transform="translate(-861 -3963)"><use fill="#00c3e2" xlink:href="#kelva"/><use fill="url(#kelvb)" xlink:href="#kelva"/></g></g></svg>