<svg xmlns="http://www.w3.org/2000/svg" xmlns:xlink="http://www.w3.org/1999/xlink" width="39" height="43" viewBox="0 0 39 43"><defs><path id="8b1xa" d="M896.5 3655.1c0 .49-.19.94-.5 1.28a1.93 1.93 0 0 1-.79 3.11v1.41h-1.28v-1.29h-1.29v1.29h-1.28v-1.29h-1.29v-6.45h1.29v-1.3h1.28v1.3h1.29v-1.3h1.28v1.42c.75.26 1.29.97 1.29 1.81zm-1.29 2.57a.64.64 0 0 0-.64-.64h-3.21v1.29h3.21c.36 0 .64-.29.64-.65zm0-2.58a.64.64 0 0 0-.64-.64h-3.21v1.29h3.21c.36 0 .64-.29.64-.65zm-7.71 1.3c0 1.33.46 2.63 1.3 3.67l-.99.81a7.1 7.1 0 0 1 9.95-9.98l-.81 1a5.78 5.78 0 0 0-9.45 4.5zm11.26-4.5a7.1 7.1 0 0 1-9.95 9.99l.82-1a5.78 5.78 0 0 0 8.14-8.17zm-22.83-7.76c0 .5-.19.94-.5 1.29a1.93 1.93 0 0 1-.79 3.1v1.41h-1.28v-1.29h-1.29v1.3h-1.28v-1.3h-1.29v-6.45h1.29v-1.29h1.28v1.3h1.29v-1.3h1.28v1.4c.75.28 1.29.99 1.29 1.83zm-1.29 2.58a.64.64 0 0 0-.64-.65h-3.21v1.3H874c.35 0 .64-.3.64-.65zm0-2.58a.64.64 0 0 0-.64-.65h-3.21v1.3H874c.35 0 .64-.3.64-.65zm1.73-3.2a5.77 5.77 0 0 0-9.44 4.49c0 1.33.46 2.64 1.3 3.67l-.99.82a7.1 7.1 0 0 1 9.95-9.99zm1.82 0a7.1 7.1 0 0 1-9.95 9.99l.81-1a5.78 5.78 0 0 0 9.45-4.5c0-1.34-.46-2.64-1.3-3.68zm5.45-2.61h1.29V3668h-3.86v-29.68h1.29v1.29h1.28zm0 2.58h-1.28v25.8h1.28zm17.36-6.1v1.58l-1.43-.01c-.08-.02-7.75-1.78-13.36-1.91v2.57h-6.42v-2.57c-5.61.13-13.28 1.89-13.36 1.9l-.14.02H865v-1.58l.22-.19c.23-.21 5.8-5.07 14.57-5.3V3628h6.42v1.3c8.77.24 14.34 5.1 14.57 5.31zm-21.21-4.2a23.68 23.68 0 0 0-12.91 4.35c2.08-.46 8.13-1.68 12.9-1.78zm5.14-1.31h-3.86v6.45h3.86zm14.19 5.66a23.74 23.74 0 0 0-12.9-4.36v2.58c4.76.1 10.8 1.32 12.9 1.78zm-10.33 7.24h1.28v1.3h-1.28zm0 2.58h1.28v1.3h-1.28zm1.28-1.29h1.29v1.3h-1.29zm-2.57 0h1.29v1.3h-1.29zm-11.57 11.61h1.28v1.3h-1.28zm0 2.58h1.28v1.3h-1.28zm1.28-1.29h1.29v1.3h-1.29zm-2.57 0h1.29v1.3h-1.29zm-8.35-3.87h1.28v1.3h-1.28zm0 2.58h1.28v1.3h-1.28zm1.28-1.29h1.29v1.3h-1.29zm-2.57 0h1.29v1.3H865zm32.79 10.33h1.28v1.29h-1.28zm0 2.58h1.28v1.29h-1.28zm1.28-1.3h1.29v1.3h-1.29zm-2.57 0h1.29v1.3h-1.29zm-3.86-28.38h1.29v1.29h-1.29zm0 2.58h1.29v1.29h-1.29zm1.29-1.29h1.28v1.29h-1.28zm-2.57 0h1.28v1.29h-1.28zm7.07 6.45h1.28v1.3h-1.28zm0 2.58h1.28v1.3h-1.28zm1.28-1.29H901v1.3h-1.29zm-2.57 0h1.29v1.3h-1.29z"/><linearGradient id="8b1xb" x1="865" x2="901" y1="3648" y2="3648" gradientUnits="userSpaceOnUse"><stop offset="0" stop-color="#212bf0"/><stop offset="1" stop-color="#00c3e2"/></linearGradient></defs><g><g transform="translate(-863 -3626)"><use fill="#00c3e2" xlink:href="#8b1xa"/><use fill="url(#8b1xb)" xlink:href="#8b1xa"/></g></g></svg>