<svg xmlns="http://www.w3.org/2000/svg" xmlns:xlink="http://www.w3.org/1999/xlink" width="43" height="43" viewBox="0 0 43 43"><defs><path id="d4s6a" d="M883 3803.17c5.39 0 9.77 4.4 9.77 9.83a9.81 9.81 0 0 1-9.77 9.83 9.81 9.81 0 0 1-9.77-9.83 9.81 9.81 0 0 1 9.77-9.83zm0 1.3a8.5 8.5 0 0 0-8.47 8.53 8.5 8.5 0 0 0 8.47 8.52 8.5 8.5 0 0 0 8.47-8.52 8.5 8.5 0 0 0-8.47-8.52zm-.65 3.94v1.31h1.3v-1.31h1.3v1.43a1.96 1.96 0 0 1 .8 3.16 1.96 1.96 0 0 1-.8 3.15v1.43h-1.3v-1.3h-1.3v1.3h-1.3v-1.3h-1.3v-6.56h1.3v-1.31zm2.6 5.9c0-.36-.29-.66-.65-.66h-3.25v1.31h3.25c.36 0 .65-.29.65-.65zm-3.9-3.28v1.31h3.25a.65.65 0 0 0 0-1.3zm1.95-5.24c1.65 0 3.26.58 4.53 1.63l-.82 1.01a5.85 5.85 0 0 0-9.57 4.57c0 1.35.47 2.68 1.32 3.73l-1 .83a7.2 7.2 0 0 1 5.55-11.77zm5.86 7.2c0-1.35-.47-2.67-1.32-3.72l1-.83a7.2 7.2 0 0 1-5.55 11.77 7.15 7.15 0 0 1-4.52-1.63l.82-1.02a5.85 5.85 0 0 0 9.57-4.56zm-14.47-11.85l8.61-1.92 12.37 2.77v13.63h-1.3v-12.58l-11.07-2.48-8.33 1.86zm-7.67 2.03h1.3v1.3h-1.3zm32.56 20.97v1.96h2.74l-6 6.9-5.99-6.9h2.74v-3.46a9.1 9.1 0 0 1-2.44 1.82l-7.33 3.69-7.33-3.7a9.13 9.13 0 0 1-5.05-8.2v-6.91l-6.7 6.74-.92-.92 8.93-8.99v-7.59h1.17l-3.13-3.6-3.12 3.6h1.17v3.28h-1.3v-1.97h-2.74l6-6.9 5.99 6.9h-2.74v6.83l-1.3 1.3v8.23c0 3 1.65 5.7 4.32 7.03l6.75 3.4 6.75-3.4a7.83 7.83 0 0 0 3.02-2.7v-1.3l9.3-9.37.93.93-8.93 8.98v7.6h-1.17l3.13 3.59 3.12-3.6h-1.17v-3.27zm-1.3-2.62h1.3v1.3h-1.3z"/><linearGradient id="d4s6b" x1="863" x2="903" y1="3813" y2="3813" gradientUnits="userSpaceOnUse"><stop offset="0" stop-color="#212bf0"/><stop offset="1" stop-color="#00c3e2"/></linearGradient></defs><g><g transform="translate(-861 -3791)"><use fill="#00c3e2" xlink:href="#d4s6a"/><use fill="url(#d4s6b)" xlink:href="#d4s6a"/></g></g></svg>